<svg xmlns="http://www.w3.org/2000/svg" xmlns:xlink="http://www.w3.org/1999/xlink" width="63.279" height="40.393" viewBox="0 0 63.279 40.393">
  <defs>
    <clipPath id="clip-path">
      <rect id="Retângulo_25" data-name="Retângulo 25" width="63.279" height="40.393" transform="translate(0 0)" fill="#ff6e2e"/>
    </clipPath>
  </defs>
  <g id="Grupo_104" data-name="Grupo 104" transform="translate(0 0)">
    <g id="Grupo_34" data-name="Grupo 34" clip-path="url(#clip-path)">
      <path id="Caminho_51" data-name="Caminho 51" d="M56.269,40.16c-.99,0-2.008-.006-3.067-.019a3.627,3.627,0,0,1-3.82-3.861c-.006-11.471-.006-22,0-32.2A3.633,3.633,0,0,1,53.275.233q2.971,0,5.944,0a3.553,3.553,0,0,1,3.828,3.818q0,5.76,0,11.52V23.1q0,6.574,0,13.148a3.569,3.569,0,0,1-3.806,3.893c-.971.012-1.957.019-2.972.019m-3.185-3.722a1.487,1.487,0,0,0,.16.01c2.116.024,4.062.024,5.948,0,.06,0,.111,0,.153-.007,0-.051.008-.114.008-.192q0-6.575,0-13.148V15.571q0-5.76,0-11.518c0-.047,0-.087,0-.121-.039,0-.085,0-.138,0q-2.964-.006-5.929,0a1.644,1.644,0,0,0-.2.011,1.423,1.423,0,0,0-.007.146c-.006,10.194-.006,20.725,0,32.194a1.341,1.341,0,0,0,.008.16" fill="#ff6e2e"/>
      <path id="Caminho_52" data-name="Caminho 52" d="M56.27,40.391c-.982,0-2.015-.006-3.071-.019a3.844,3.844,0,0,1-4.048-4.092c-.005-11.467-.005-22,0-32.2A3.85,3.85,0,0,1,53.275,0q2.973,0,5.944,0a3.767,3.767,0,0,1,4.059,4.048q0,5.76,0,11.52V23.1q0,6.574,0,13.148a3.779,3.779,0,0,1-4.034,4.123c-.975.013-1.948.02-2.974.02M56.247.461q-1.485,0-2.971,0a3.417,3.417,0,0,0-3.662,3.618c-.006,10.2-.006,20.731,0,32.2a3.411,3.411,0,0,0,3.592,3.632c1.054.012,2.085.018,3.065.018,1.024,0,1.995-.006,2.968-.019a3.356,3.356,0,0,0,3.578-3.662q0-6.573,0-13.148V15.571q0-5.76,0-11.52a3.338,3.338,0,0,0-3.6-3.587l-2.972,0M56.27,36.7c-.976,0-1.981-.006-3.029-.018a1.634,1.634,0,0,1-.186-.012l-.179-.023-.021-.179a1.733,1.733,0,0,1-.01-.187c-.005-11.465-.005-22,0-32.194a1.554,1.554,0,0,1,.008-.169l.018-.182.182-.024a1.846,1.846,0,0,1,.228-.013q2.965-.006,5.93,0c.06,0,.112,0,.155.006l.2.015.013.2c0,.039,0,.083,0,.136q0,5.759,0,11.518V23.1q0,6.574,0,13.148c0,.086,0,.156-.008.212l-.017.192-.192.018c-.047,0-.1.007-.171.008-.955.013-1.925.019-2.926.019m-2.963-.479c2.069.023,3.972.022,5.816,0q0-6.558,0-13.117V15.571q0-5.706,0-11.413-2.907-.006-5.814,0c-.006,10.157-.007,20.647,0,32.06" fill="#ff6e2e"/>
      <path id="Caminho_53" data-name="Caminho 53" d="M23.472,40.155c-.944,0-1.905,0-2.878-.008a3.664,3.664,0,0,1-3.983-4.04V18.234q0-5.379,0-10.758a3.639,3.639,0,0,1,3.98-3.986c1.946-.01,3.873-.01,5.727,0A3.68,3.68,0,0,1,30.287,7.5q0,14.316,0,28.631a3.681,3.681,0,0,1-3.965,4.015c-.927.005-1.88.008-2.85.008m-3.149-3.718a2.29,2.29,0,0,0,.291.016c1.958.011,3.871.011,5.685,0a2.169,2.169,0,0,0,.276-.017,2.34,2.34,0,0,0,.018-.3q0-14.316,0-28.63a2.106,2.106,0,0,0-.018-.3,2.169,2.169,0,0,0-.278-.018c-1.841-.01-3.754-.01-5.686,0a2.459,2.459,0,0,0-.292.017,2.352,2.352,0,0,0-.014.276q0,5.379,0,10.757V36.106a2.582,2.582,0,0,0,.018.331" fill="#ff6e2e"/>
      <path id="Caminho_54" data-name="Caminho 54" d="M23.472,40.386c-.944,0-1.906,0-2.879-.008-2.677-.014-4.212-1.571-4.213-4.271V18.234q0-5.379,0-10.758A3.848,3.848,0,0,1,20.59,3.259c1.973-.011,3.9-.011,5.73,0a3.893,3.893,0,0,1,4.2,4.242q0,14.316,0,28.631a3.892,3.892,0,0,1-4.194,4.245c-.928.006-1.881.009-2.852.009m.017-36.673c-.95,0-1.918,0-2.9.008a3.4,3.4,0,0,0-3.75,3.755V36.107c0,2.443,1.334,3.8,3.754,3.809,1.971.011,3.9.011,5.725,0a3.468,3.468,0,0,0,3.735-3.784q0-14.316,0-28.631a3.468,3.468,0,0,0-3.739-3.78c-.92,0-1.865-.008-2.828-.008m-.007,32.979c-.938,0-1.9,0-2.869-.008a2.96,2.96,0,0,1-.318-.018l-.177-.022-.023-.177a2.744,2.744,0,0,1-.021-.361V7.476a2.7,2.7,0,0,1,.016-.3l.021-.179.179-.023a2.728,2.728,0,0,1,.32-.019c1.96-.01,3.874-.011,5.688,0a2.323,2.323,0,0,1,.309.02L26.78,7l.024.172a2.487,2.487,0,0,1,.02.332q0,14.316,0,28.631a2.54,2.54,0,0,1-.02.336l-.024.173-.174.023a2.463,2.463,0,0,1-.305.02c-.913.005-1.855.008-2.819.008m-2.944-.471h.078c1.97.011,3.882.011,5.682,0h.063c0-.027,0-.057,0-.089q0-14.316,0-28.631c0-.029,0-.057,0-.085H26.3c-1.813-.011-3.725-.011-5.684,0h-.075c0,.02,0,.04,0,.06q0,5.379,0,10.758V36.106c0,.04,0,.078,0,.115" fill="#ff6e2e"/>
      <path id="Caminho_55" data-name="Caminho 55" d="M39.826,40.155c-.963,0-1.92,0-2.863-.008a3.68,3.68,0,0,1-3.971-4.008q0-11.057,0-22.112a3.648,3.648,0,0,1,3.941-3.98c1.818-.007,3.706-.007,5.774,0a3.643,3.643,0,0,1,3.96,3.948q0,3.969,0,7.939v6.426q0,3.9,0,7.805a3.638,3.638,0,0,1-3.981,3.983c-.955.005-1.912.008-2.861.008M36.7,36.435a2.178,2.178,0,0,0,.28.018c1.859.01,3.771.01,5.683,0a2.479,2.479,0,0,0,.293-.017,2.313,2.313,0,0,0,.014-.274q0-3.9,0-7.8V21.932q0-3.967,0-7.936a2.1,2.1,0,0,0-.012-.241,2.368,2.368,0,0,0-.266-.015c-2.059-.006-3.939-.006-5.749,0a1.786,1.786,0,0,0-.244.015,1.908,1.908,0,0,0-.017.272q0,11.055,0,22.11a2.079,2.079,0,0,0,.018.3" fill="#ff6e2e"/>
      <path id="Caminho_56" data-name="Caminho 56" d="M39.826,40.386c-.964,0-1.921,0-2.864-.008a3.893,3.893,0,0,1-4.2-4.239q0-11.055,0-22.111a3.861,3.861,0,0,1,4.171-4.212c1.863-.007,3.752-.007,5.775,0a3.853,3.853,0,0,1,4.19,4.178q0,3.969,0,7.939v6.426q0,3.9,0,7.805a3.848,3.848,0,0,1-4.209,4.214c-.957.005-1.913.008-2.863.008m0-30.113c-.981,0-1.94,0-2.893.005a3.437,3.437,0,0,0-3.711,3.75q0,11.055,0,22.111a3.467,3.467,0,0,0,3.741,3.777c1.872.011,3.8.011,5.722,0a3.4,3.4,0,0,0,3.751-3.752q0-3.9,0-7.8V21.933q0-3.969,0-7.939a3.429,3.429,0,0,0-3.73-3.716c-.988,0-1.944-.005-2.88-.005M39.82,36.692c-.956,0-1.9,0-2.838-.008a2.526,2.526,0,0,1-.311-.02l-.171-.025-.025-.171a2.434,2.434,0,0,1-.02-.33q0-11.054,0-22.11a2.273,2.273,0,0,1,.019-.305l.025-.172.173-.024a2.009,2.009,0,0,1,.274-.017c1.788-.007,3.669-.007,5.751,0a2.334,2.334,0,0,1,.292.016l.183.021.019.183A2.261,2.261,0,0,1,43.2,14q0,3.969,0,7.937V28.36q0,3.9,0,7.8a2.674,2.674,0,0,1-.016.3l-.021.179-.179.022a2.747,2.747,0,0,1-.321.019c-.953.005-1.9.008-2.848.008m-2.9-.471h.067c1.851.011,3.762.011,5.681,0h.077v-.059q0-3.9,0-7.8V21.933q0-3.969,0-7.937v-.024h-.048c-2.08-.006-3.96-.006-5.747,0h-.03c0,.018,0,.037,0,.056q0,11.057,0,22.11c0,.03,0,.058,0,.083" fill="#ff6e2e"/>
      <path id="Caminho_57" data-name="Caminho 57" d="M7.057,40.161c-1.025,0-2.049-.008-3.066-.023A3.58,3.58,0,0,1,.232,36.264q0-2.959,0-5.919v-4.31q0-2.8,0-5.612a3.573,3.573,0,0,1,3.777-3.814c2.155-.013,4.141-.012,6.073,0A3.631,3.631,0,0,1,13.9,20.424c.01,5.117.01,10.466,0,15.9a3.617,3.617,0,0,1-3.739,3.811c-1.029.016-2.065.024-3.1.024M3.933,36.439c.033,0,.071.005.116.005,2,.031,4.04.031,6.05,0l.1-.005a.989.989,0,0,0,.006-.119c.01-5.431.009-10.777,0-15.888,0-.049,0-.089-.005-.121-.036,0-.081-.007-.138-.008-1.918-.013-3.889-.013-6.028,0q-.057,0-.1,0c0,.034,0,.074,0,.121q0,2.8,0,5.607v4.311q0,2.958,0,5.916c0,.072,0,.13.007.178" fill="#ff6e2e"/>
      <path id="Caminho_58" data-name="Caminho 58" d="M7.058,40.392c-1.015,0-2.047-.008-3.07-.024A3.794,3.794,0,0,1,0,36.264Q0,33.3,0,30.345v-4.31q0-2.8,0-5.612a3.789,3.789,0,0,1,4.006-4.045c2.156-.012,4.143-.012,6.076,0a3.849,3.849,0,0,1,4.042,4.045c.01,5.136.011,10.487,0,15.9a3.835,3.835,0,0,1-3.966,4.041c-1.026.016-2.07.024-3.1.024m.017-23.561c-.99,0-2.007,0-3.064.009A3.355,3.355,0,0,0,.464,20.423q0,2.807,0,5.612v4.31q0,2.96,0,5.919a3.365,3.365,0,0,0,3.532,3.643c2.061.032,4.132.032,6.159,0a3.4,3.4,0,0,0,3.511-3.58c.01-5.416.01-10.766,0-15.9a3.414,3.414,0,0,0-3.584-3.585c-.983-.006-1.98-.009-3.006-.009M7.061,36.7c-1.007,0-2.015-.007-3.016-.023q-.074,0-.129-.006l-.195-.014L3.7,36.46c0-.053-.008-.119-.008-.2q0-2.958,0-5.916v-4.31q0-2.8,0-5.608c0-.054,0-.1,0-.138l.014-.2.2-.012c.033,0,.07,0,.113,0,2.139-.012,4.111-.013,6.031,0a1.4,1.4,0,0,1,.164.009l.182.023.019.182a1.35,1.35,0,0,1,.008.145c.01,5.131.01,10.477,0,15.888,0,.056,0,.1-.006.141l-.019.188-.188.019c-.032,0-.071.006-.117.007-1.009.015-2.025.023-3.042.023m-2.9-.483c1.931.029,3.886.029,5.815,0,.009-5.34.009-10.615,0-15.681-1.853-.013-3.757-.013-5.814,0q0,2.751,0,5.5v4.31q0,2.935,0,5.87" fill="#ff6e2e"/>
    </g>
  </g>
</svg>
