<svg id="Grupo_31" data-name="Grupo 31" xmlns="http://www.w3.org/2000/svg" xmlns:xlink="http://www.w3.org/1999/xlink" width="51.194" height="51.102" viewBox="0 0 51.194 51.102">
  <defs>
    <clipPath id="clip-path">
      <rect id="Retângulo_23" data-name="Retângulo 23" width="51.194" height="51.102" fill="#ff6e2e"/>
    </clipPath>
  </defs>
  <g id="Grupo_30" data-name="Grupo 30" clip-path="url(#clip-path)">
    <path id="Caminho_45" data-name="Caminho 45" d="M25.646,46.074a2.47,2.47,0,0,0-1.049.24,2.276,2.276,0,0,1-.283.119.2.2,0,0,1-.03-.011c-6.518-2.912-13.18-5.872-19.8-8.8L4.436,37.6c0-.021,0-.05,0-.09.014-2.945.013-5.992.011-8.68V23.081s0-5.519,0-7.669q1.283.573,2.567,1.144l3.917,1.74c3.748,1.665,8,3.552,12.082,5.38a3.346,3.346,0,0,0,1.379.314,3.281,3.281,0,0,0,1.356-.307q5.154-2.306,10.315-4.6,4.108-1.825,8.214-3.656c-.006,1.9-.006,3.8-.005,5.655V23.8a3.422,3.422,0,0,0,.165,1.228,2.206,2.206,0,0,0,2.094,1.461,2.182,2.182,0,0,0,1.614-.7,2.421,2.421,0,0,0,.573-1.759l0-2.564c-.005-2.972-.01-6.045.016-9.065a2.584,2.584,0,0,0-1.705-2.617C39.594,6.506,32.065,3.158,25.592.276A2.941,2.941,0,0,0,24.376,0,2.713,2.713,0,0,0,23.23.258c-.954.433-1.941.868-2.814,1.253l-1.444.638L14.344,4.208C10.175,6.061,5.865,7.979,1.6,9.864A2.5,2.5,0,0,0,0,12.322Q0,25.543,0,38.765a2.5,2.5,0,0,0,1.618,2.447C7.6,43.86,13.684,46.565,19.566,49.18L23.1,50.75a2.871,2.871,0,0,0,1.171.226,4.049,4.049,0,0,0,3.161-1.453,2.181,2.181,0,0,0-.1-2.659,2.137,2.137,0,0,0-1.683-.79M34.8,9.228q2.745,1.233,5.5,2.449l.747.331-16.654,7.4q-2.679-1.2-5.361-2.388l-.884-.393c.4-.18.8-.358,1.194-.534l5.019-2.229q5.173-2.3,10.345-4.6c.045-.02.076-.033.1-.04M17.422,7.7l6.869-3.051c.05-.023.084-.036.107-.044q2.262,1.02,4.533,2.023l.381.17-8.673,3.854-2.149.954q-2.849,1.264-5.693,2.537a.442.442,0,0,1-.153.05.2.2,0,0,1-.068-.022c-1.368-.619-2.749-1.232-4.1-1.83l-.752-.334L17.422,7.7" transform="translate(0 0)" fill="#ff6e2e"/>
    <path id="Caminho_46" data-name="Caminho 46" d="M47.36,28.46a13.5,13.5,0,0,0-9.49-3.927h-.047A13.285,13.285,0,0,0,37.909,51.1h.061A13.3,13.3,0,0,0,47.36,28.46m-9.383,18.2H37.94a8.836,8.836,0,1,1,8.8-8.83,8.725,8.725,0,0,1-8.764,8.83" transform="translate(0 0)" fill="#ff6e2e"/>
    <path id="Caminho_47" data-name="Caminho 47" d="M42.8,33.172a2.424,2.424,0,0,0-1.749.833q-.726.728-1.455,1.452c-.909.9-1.931,1.922-2.906,2.924-.454-.485-.93-.942-1.392-1.386l-.044-.042a2.461,2.461,0,0,0-1.7-.748A2.115,2.115,0,0,0,32,36.884a2.2,2.2,0,0,0,.11,3.189c1,1.019,1.99,2.011,2.95,2.948a2.183,2.183,0,0,0,3.235,0c1.6-1.589,3.257-3.243,4.713-4.7l1.324-1.326a2.147,2.147,0,0,0,.68-1.648,2.188,2.188,0,0,0-2.123-2.166l-.1,0" transform="translate(0 0)" fill="#ff6e2e"/>
  </g>
</svg>
