<svg xmlns="http://www.w3.org/2000/svg" xmlns:xlink="http://www.w3.org/1999/xlink" width="51.636" height="44.244" viewBox="0 0 51.636 44.244">
  <defs>
    <clipPath id="clip-path">
      <rect id="Retângulo_28" data-name="Retângulo 28" width="51.636" height="44.244" transform="translate(0 0)" fill="#ff6e2e"/>
    </clipPath>
  </defs>
  <g id="Grupo_107" data-name="Grupo 107" transform="translate(0 0)">
    <g id="Grupo_40" data-name="Grupo 40" clip-path="url(#clip-path)">
      <path id="Caminho_74" data-name="Caminho 74" d="M41.327,25.468c-.047-1.9.1-4.11-.107-6.314-.5-5.417-2.549-10.006-7.281-13.028a14.876,14.876,0,0,0-21.113,5.625,18.7,18.7,0,0,0-2.1,7.775c-.189,3.263-.114,6.529-.065,9.791a11.393,11.393,0,0,0,3.6,8.456,9.2,9.2,0,0,0,6.355,2.581c1.23.02,2.459-.005,3.689.01A1.932,1.932,0,0,1,26.28,42.15a1.868,1.868,0,0,1-1.682,2c-4.379.319-8.61-.035-12.228-2.938a13.979,13.979,0,0,1-4.9-7.481.648.648,0,0,0-.692-.586A6.885,6.885,0,0,1,.053,26.656a7.656,7.656,0,0,1,1.6-5.775,6.463,6.463,0,0,1,4.68-2.406c.458-.042.607-.187.669-.641A21.074,21.074,0,0,1,12.84,5.39a17.757,17.757,0,0,1,9.873-5.1A18.275,18.275,0,0,1,37.832,4.227,19.761,19.761,0,0,1,44.509,15.39a21.3,21.3,0,0,1,.43,2.319.677.677,0,0,0,.641.694,7.169,7.169,0,0,1,5.9,5.821,7.3,7.3,0,0,1-6.974,8.72c-.442.007-.884.012-1.326,0a1.807,1.807,0,0,1-1.847-1.868c-.014-1.767,0-3.534,0-5.608" fill="#ff6e2e"/>
      <path id="Caminho_75" data-name="Caminho 75" d="M25.977,27.641a2.063,2.063,0,0,1-2.032-2,2.034,2.034,0,1,1,4.068-.054,2.057,2.057,0,0,1-2.036,2.058" fill="#ff6e2e"/>
      <path id="Caminho_76" data-name="Caminho 76" d="M33.34,27.641a2.06,2.06,0,0,1-2.018-2.017A2.034,2.034,0,1,1,35.39,25.6a2.057,2.057,0,0,1-2.05,2.045" fill="#ff6e2e"/>
      <path id="Caminho_77" data-name="Caminho 77" d="M18.6,27.633a2.027,2.027,0,1,1,2.054-2.046A2.065,2.065,0,0,1,18.6,27.633" fill="#ff6e2e"/>
    </g>
  </g>
</svg>
