<svg xmlns="http://www.w3.org/2000/svg" xmlns:xlink="http://www.w3.org/1999/xlink" width="59.129" height="50.826" viewBox="0 0 59.129 50.826">
  <defs>
    <clipPath id="clip-path">
      <rect id="Retângulo_26" data-name="Retângulo 26" width="59.129" height="50.826" transform="translate(0 0)" fill="#ff6e2e"/>
    </clipPath>
  </defs>
  <g id="Grupo_105" data-name="Grupo 105" transform="translate(0 0)">
    <g id="Grupo_36" data-name="Grupo 36" clip-path="url(#clip-path)">
      <path id="Caminho_59" data-name="Caminho 59" d="M29.574.022C37.05.021,44.526.068,52,0a7.063,7.063,0,0,1,7.057,5.881,6.578,6.578,0,0,1,.067,1.032q0,13.889,0,27.778a6.883,6.883,0,0,1-6.933,6.91q-9.743.012-19.486,0c-.791,0-.792,0-.793.785,0,1,.031,2-.012,3-.024.57.129.768.732.758,2.075-.036,4.151-.023,6.226-.009a2.311,2.311,0,0,1,2.266,1.98,2.355,2.355,0,0,1-1.664,2.634,2.835,2.835,0,0,1-.8.077q-9.109,0-18.218,0a2.35,2.35,0,1,1,.019-4.694c2.037-.005,4.075-.017,6.111.009.514.007.666-.159.651-.66-.034-1.055-.038-2.114,0-3.169.02-.552-.15-.719-.71-.718-6.381.019-12.761-.013-19.141.026a7.126,7.126,0,0,1-5.25-1.951A6.647,6.647,0,0,1,0,34.728Q0,20.811,0,6.893A6.88,6.88,0,0,1,6.859.025Q18.217.01,29.574.022m-.008,4.7H17.693c-3.477,0-6.954-.005-10.432,0A2.354,2.354,0,0,0,4.7,7.212c0,.115,0,.231,0,.346v26.5c0,.154,0,.308.006.461A2.332,2.332,0,0,0,7.083,36.9c.25.015.5.006.75.006H50.542c.479,0,.96.013,1.44-.005a2.341,2.341,0,0,0,2.443-2.434c.008-.191,0-.384,0-.576q0-4.407,0-8.815,0-8.814,0-17.629A2.532,2.532,0,0,0,53.4,5.134,2.923,2.923,0,0,0,51.7,4.716q-11.066,0-22.132,0" fill="#ff6e2e"/>
      <path id="Caminho_60" data-name="Caminho 60" d="M24.91,30.228a6.938,6.938,0,0,1,.355-1.994q2.127-8.542,4.267-17.082A2.308,2.308,0,0,1,31.3,9.3a2.274,2.274,0,0,1,2.423.821,2.416,2.416,0,0,1,.394,2.234q-1.888,7.564-3.779,15.129c-.265,1.061-.508,2.128-.8,3.18a2.336,2.336,0,0,1-2.712,1.695,2.3,2.3,0,0,1-1.914-2.133" fill="#ff6e2e"/>
      <path id="Caminho_61" data-name="Caminho 61" d="M20.111,27.779a2.063,2.063,0,0,1-1.424-.667c-1.547-1.547-3.105-3.083-4.637-4.644a2.289,2.289,0,0,1,0-3.308q2.3-2.341,4.642-4.64a2.357,2.357,0,0,1,3.348,3.317c-.85.887-1.722,1.752-2.605,2.606-.288.278-.294.457,0,.739q1.345,1.3,2.645,2.647a2.212,2.212,0,0,1,.414,2.565,2.319,2.319,0,0,1-2.377,1.385" fill="#ff6e2e"/>
      <path id="Caminho_62" data-name="Caminho 62" d="M38.95,27.775a2.321,2.321,0,0,1-2.309-1.363,2.288,2.288,0,0,1,.44-2.613c.827-.855,1.656-1.711,2.529-2.519.409-.379.351-.6-.02-.949-.824-.776-1.615-1.587-2.407-2.4a2.362,2.362,0,1,1,3.327-3.35q2.276,2.244,4.52,4.519a2.314,2.314,0,0,1-.016,3.435c-1.5,1.516-3.013,3.013-4.517,4.522a2.152,2.152,0,0,1-1.547.714" fill="#ff6e2e"/>
    </g>
  </g>
</svg>
