<svg xmlns="http://www.w3.org/2000/svg" xmlns:xlink="http://www.w3.org/1999/xlink" width="59.123" height="59.098" viewBox="0 0 59.123 59.098">
  <defs>
    <clipPath id="clip-path">
      <rect id="Retângulo_29" data-name="Retângulo 29" width="59.123" height="59.098" transform="translate(0 0)" fill="#ff6e2e"/>
    </clipPath>
  </defs>
  <g id="Grupo_43" data-name="Grupo 43" transform="translate(0 0)">
    <g id="Grupo_42" data-name="Grupo 42" clip-path="url(#clip-path)">
      <path id="Caminho_78" data-name="Caminho 78" d="M35.363,0H56.979c1.515,0,2.144.62,2.144,2.118q0,17.518,0,35.038c0,1.5-.63,2.117-2.145,2.117-4.131,0-8.262.009-12.393-.01a.972.972,0,0,0-1.022.6,4.942,4.942,0,0,1-4.642,2.858q-5.793.025-11.586-.008c-.6,0-.737.18-.735.753.022,4.514.013,9.028.012,13.542,0,1.434-.643,2.084-2.063,2.084q-11.24,0-22.48,0a1.787,1.787,0,0,1-2.058-2.03c0-4.572-.028-9.144.008-13.716A10.706,10.706,0,0,1,6.29,33.333c.469-.242.534-.376.2-.812a8.674,8.674,0,0,1,4.46-13.761c.5-.147.6-.4.6-.858q-.018-7.895-.007-15.79C11.54.637,12.17,0,13.632,0H35.363m.008,3.544H15.836c-.75,0-.752,0-.752.767,0,4.513.008,9.026-.011,13.539a.79.79,0,0,0,.661.928,8.69,8.69,0,0,1,5.006,12.9c-.094.158-.323.319-.225.495.116.205.387.09.587.091q8.816.007,17.633,0a4.4,4.4,0,0,1,1.865.277.757.757,0,0,0,.989-.248q3.2-3.233,6.433-6.441c.408-.407.8-.829,1.232-1.213a1.74,1.74,0,0,1,1.988-.251,1.709,1.709,0,0,1,.96,1.7,1.974,1.974,0,0,1-.694,1.344q-3.67,3.663-7.335,7.332a3.838,3.838,0,0,0-.321.33c-.226.288-.124.558.238.619a3.191,3.191,0,0,0,.518.013H54.75c.827,0,.828,0,.828-.806q0-15.3,0-30.591c0-.788,0-.789-.787-.789H35.371M24.84,35.816q-6.714,0-13.43,0a8.892,8.892,0,0,0-1.831.173,7.461,7.461,0,0,0-6.02,7.486c-.016,3.784.009,7.569-.017,11.352,0,.59.167.743.748.741q9.02-.031,18.041,0c.577,0,.753-.145.75-.738-.024-4.533-.014-9.067-.012-13.6a1.787,1.787,0,0,1,2.046-2.041q6.629,0,13.258,0a3.244,3.244,0,0,0,1.079-.142A1.633,1.633,0,0,0,40.466,37,1.8,1.8,0,0,0,38.5,35.818q-6.829,0-13.661,0m-6.411-8.61a5.131,5.131,0,0,0-5.067-5.194,5.117,5.117,0,0,0-.1,10.234,5.16,5.16,0,0,0,5.167-5.04" fill="#ff6e2e"/>
      <path id="Caminho_79" data-name="Caminho 79" d="M35.29,24.289c-3.054,0-6.108.01-9.162,0a1.756,1.756,0,0,1-1.562-2.649,1.57,1.57,0,0,1,1.456-.874c.537.019.65-.207.628-.684-.033-.689-.013-1.382-.007-2.073a1.772,1.772,0,1,1,3.541-.027c.008.749.018,1.5,0,2.247-.012.407.149.539.542.528.748-.021,1.5-.027,2.247,0,.451.017.6-.135.6-.592q-.027-3.456,0-6.912a1.729,1.729,0,0,1,1.493-1.712,1.761,1.761,0,0,1,1.968,1.233,2.729,2.729,0,0,1,.074.74c.005,2.208.015,4.416-.006,6.624-.005.484.157.641.63.619a19.908,19.908,0,0,1,2.073,0c.527.03.693-.14.69-.678-.021-3.764-.014-7.527-.009-11.291a1.77,1.77,0,1,1,3.537-.092c.014,2.112.005,4.225.005,6.337,0,1.689.011,3.379-.007,5.069,0,.439.075.656.592.661a1.7,1.7,0,0,1,1.718,1.775,1.728,1.728,0,0,1-1.814,1.749c-3.073.008-6.146,0-9.219,0" fill="#ff6e2e"/>
    </g>
  </g>
</svg>
