<svg xmlns="http://www.w3.org/2000/svg" xmlns:xlink="http://www.w3.org/1999/xlink" width="51.839" height="51.837" viewBox="0 0 51.839 51.837">
  <defs>
    <clipPath id="clip-path">
      <rect id="Retângulo_24" data-name="Retângulo 24" width="51.839" height="51.837" transform="translate(0 0)" fill="#ff6e2e"/>
    </clipPath>
  </defs>
  <g id="Grupo_103" data-name="Grupo 103" transform="translate(0 0)">
    <g id="Grupo_32" data-name="Grupo 32" clip-path="url(#clip-path)">
      <path id="Caminho_48" data-name="Caminho 48" d="M16.938,51.826c-1.648-.029-1.308.191-1.669-1.384-.15-.651-.294-1.3-.427-1.958a.539.539,0,0,0-.474-.464,16.158,16.158,0,0,1-1.665-.449.635.635,0,0,0-.779.219c-.6.683-1.227,1.344-1.82,2.034a.587.587,0,0,1-.866.146c-.475-.289-.962-.562-1.455-.82a.623.623,0,0,1-.338-.9c.307-.836.539-1.7.83-2.541a.661.661,0,0,0-.225-.826,10.041,10.041,0,0,1-1.1-1.1.663.663,0,0,0-.823-.236c-.878.3-1.771.559-2.649.861a.524.524,0,0,1-.735-.266q-.454-.831-.934-1.647a.509.509,0,0,1,.147-.726c.7-.614,1.374-1.25,2.075-1.859a.666.666,0,0,0,.21-.831,9.149,9.149,0,0,1-.407-1.5.693.693,0,0,0-.643-.635c-.91-.183-1.812-.406-2.722-.583A.5.5,0,0,1,0,35.787c0-.631.007-1.263,0-1.894,0-.338.151-.488.485-.553.893-.173,1.777-.392,2.668-.57a.723.723,0,0,0,.684-.665,8.2,8.2,0,0,1,.408-1.5.663.663,0,0,0-.233-.825c-.685-.6-1.346-1.225-2.034-1.82a.568.568,0,0,1-.146-.823c.3-.511.605-1.023.885-1.546.2-.372.452-.406.83-.273.858.3,1.734.55,2.6.843a.636.636,0,0,0,.781-.213,12.516,12.516,0,0,1,1.14-1.14.635.635,0,0,0,.223-.778c-.3-.879-.552-1.773-.859-2.648a.547.547,0,0,1,.28-.778c.538-.291,1.073-.591,1.6-.9a.534.534,0,0,1,.771.153c.612.7,1.248,1.376,1.859,2.074a.634.634,0,0,0,.785.2,9.024,9.024,0,0,1,1.5-.407.725.725,0,0,0,.669-.679c.176-.892.4-1.775.568-2.668a.523.523,0,0,1,.606-.493c.613.009,1.227.012,1.839,0,.366-.007.528.162.6.512.17.874.379,1.741.548,2.615a.755.755,0,0,0,.7.719,7.191,7.191,0,0,1,1.449.392.694.694,0,0,0,.872-.245c.6-.686,1.222-1.348,1.82-2.034a.543.543,0,0,1,.778-.138c.528.31,1.057.62,1.595.913.348.189.381.429.257.786-.3.859-.547,1.735-.842,2.6a.661.661,0,0,0,.226.826,10.12,10.12,0,0,1,1.1,1.1.663.663,0,0,0,.823.237c.878-.3,1.772-.556,2.649-.858a.522.522,0,0,1,.736.263q.453.831.933,1.647a.508.508,0,0,1-.145.726c-.7.615-1.373,1.251-2.075,1.86a.665.665,0,0,0-.212.83,9.165,9.165,0,0,1,.407,1.5.686.686,0,0,0,.646.631c.874.17,1.74.386,2.615.547a.609.609,0,0,1,.578.721c-.021.556-.024,1.115,0,1.671.018.44-.178.626-.6.706-.893.17-1.777.388-2.669.562a.627.627,0,0,0-.565.575,11.007,11.007,0,0,1-.423,1.556.663.663,0,0,0,.232.825c.685.6,1.346,1.225,2.034,1.82a.561.561,0,0,1,.14.821q-.444.74-.848,1.5a.6.6,0,0,1-.86.321c-.855-.308-1.734-.551-2.595-.843a.636.636,0,0,0-.781.212,12.933,12.933,0,0,1-1.14,1.142.637.637,0,0,0-.224.777c.3.879.553,1.773.86,2.649a.549.549,0,0,1-.279.779c-.538.292-1.073.591-1.6.905a.536.536,0,0,1-.772-.154c-.612-.7-1.248-1.376-1.86-2.074a.632.632,0,0,0-.783-.2,10.688,10.688,0,0,1-1.557.42.661.661,0,0,0-.6.61c-.17.856-.391,1.7-.539,2.56-.086.5-.315.713-.818.663-.258-.025-.52,0-.78,0m8.909-16.982A8.818,8.818,0,0,0,16.956,26a8.844,8.844,0,0,0,.01,17.688,8.817,8.817,0,0,0,8.881-8.849" fill="#ff6e2e"/>
      <path id="Caminho_49" data-name="Caminho 49" d="M32.3,16.3c-.1.041-.25.1-.4.174-.613.31-1.231.611-1.831.945a.637.637,0,0,1-.843-.09c-1.373-1.2-1.379-1.191-.542-2.818a2.063,2.063,0,0,1,.233-.442c.6-.653.213-1.268-.05-1.893-.094-.222-.306-.258-.5-.319-.654-.211-1.305-.431-1.967-.611a.684.684,0,0,1-.558-.76c-.047-1.741-.057-1.741,1.588-2.276a2.445,2.445,0,0,1,.532-.162c.866-.075,1.04-.771,1.288-1.4.078-.2-.045-.359-.128-.522-.327-.645-.648-1.3-.994-1.93a.543.543,0,0,1,.093-.746c.027-.025.05-.054.075-.082,1.175-1.321,1.175-1.321,2.728-.519a2.865,2.865,0,0,1,.54.287c.653.547,1.247.168,1.852-.09.2-.085.235-.278.29-.451.221-.689.446-1.378.649-2.072a.61.61,0,0,1,.642-.484c1.831-.1,1.831-.112,2.378,1.6a2.767,2.767,0,0,1,.178.585c.078.862.8.973,1.4,1.222.194.08.357-.057.519-.139.63-.317,1.267-.623,1.882-.968a.631.631,0,0,1,.839.119c1.343,1.193,1.348,1.187.533,2.775a2.063,2.063,0,0,1-.233.442c-.567.644-.271,1.263.023,1.894a.668.668,0,0,0,.483.333c.654.209,1.306.428,1.967.612a.688.688,0,0,1,.584.741c.057,1.781.069,1.781-1.613,2.316a2.206,2.206,0,0,1-.479.144c-.861.066-1.068.735-1.309,1.381a.614.614,0,0,0,.107.525c.337.662.669,1.326,1.02,1.98a.515.515,0,0,1-.087.7.5.5,0,0,0-.037.042c-1.181,1.4-1.181,1.4-2.809.568a2.237,2.237,0,0,1-.442-.233c-.65-.552-1.27-.262-1.9.035-.218.1-.263.3-.324.492-.216.671-.435,1.341-.63,2.019a.635.635,0,0,1-.679.512c-1.81.083-1.81.091-2.359-1.628-.073-.229-.148-.459-.222-.688A1.825,1.825,0,0,0,32.3,16.3M35.713,6.37a3.509,3.509,0,1,0,3.492,3.551A3.559,3.559,0,0,0,35.713,6.37" fill="#ff6e2e"/>
      <path id="Caminho_50" data-name="Caminho 50" d="M38.856,36.734a3.038,3.038,0,0,1-.944-.72.911.911,0,0,1-.24-1.389c.086-.118.1-.288.191-.4.587-.738.067-1.371-.212-2-.142-.322-.57-.311-.876-.425-1.2-.45-1.075-.171-1.124-1.592-.022-.623.162-1,.8-1.1.126-.022.243-.106.37-.12.947-.107,1.086-.916,1.321-1.588.124-.355-.26-.67-.363-1.023s-.5-.65-.31-1.02a3.591,3.591,0,0,1,1.194-1.227.4.4,0,0,1,.423.02,3.005,3.005,0,0,1,.6.3,1.842,1.842,0,0,0,2.118-.054c.315-.152.35-.464.449-.734.525-1.44.521-1.434,2.057-1.324a.584.584,0,0,1,.6.465,3.52,3.52,0,0,1,.161.473c.107.931.793,1.256,1.548,1.522a.525.525,0,0,0,.429-.024c.167-.08.335-.16.5-.237,1.232-.558,1.589-.454,2.361.657a.5.5,0,0,1,.068.565,4.171,4.171,0,0,1-.291.6,1.8,1.8,0,0,0,.027,2.064.638.638,0,0,0,.342.343c.139.052.277.106.417.156,1.442.516,1.436.516,1.32,2.058a.561.561,0,0,1-.414.581,3.332,3.332,0,0,1-.526.179c-.933.108-1.251.8-1.521,1.551a.523.523,0,0,0,.028.428c.08.168.16.335.237.5.569,1.256.5,1.489-.617,2.326a.542.542,0,0,1-.661.074,5.086,5.086,0,0,1-.55-.267,1.794,1.794,0,0,0-2.065.03.632.632,0,0,0-.342.343c-.058.157-.118.313-.174.47-.474,1.327-.742,1.48-2.152,1.256a.51.51,0,0,1-.448-.357,2.823,2.823,0,0,1-.2-.578c-.106-.937-.809-1.241-1.553-1.52-.249-.093-.431.04-.629.129-.457.2-.911.413-1.352.614m4.862-8.965a2.656,2.656,0,0,0-2.6,2.66,2.611,2.611,0,1,0,2.6-2.66" fill="#ff6e2e"/>
    </g>
  </g>
</svg>
