<svg xmlns="http://www.w3.org/2000/svg" xmlns:xlink="http://www.w3.org/1999/xlink" width="1920" height="719" viewBox="0 0 1920 719">
  <defs>
    <clipPath id="clip-path">
      <rect id="Retângulo_108" data-name="Retângulo 108" width="521.151" height="497.103" fill="none"/>
    </clipPath>
  </defs>
  <g id="Grupo_171" data-name="Grupo 171" transform="translate(0 -5036)">
    <rect id="Retângulo_110" data-name="Retângulo 110" width="1920" height="719" transform="translate(0 5036)" fill="#f7f8ff"/>
    <g id="Grupo_163" data-name="Grupo 163" transform="translate(0.575 1097)">
      <text id="Potencialize_sua_gestão" data-name="Potencialize sua gestão" transform="translate(960 4064)" fill="#0521e3" font-size="40" font-family="Alfabet-Regular, Alfabet"><tspan x="0" y="0">Potencialize sua gestão</tspan></text>
      <text id="Você_está_cansado_de_perder_dinheiro_por_não_ter_o_controle_de_seu_estoque_não_conseguir_acompanhar_os_processos_de_vendas_o_desempenho_financeiro_da_sua_empresa_e_ainda_não_consegue_cumprir_obrigações_fiscais_Pare_de_sofrer_A_Quadria_simplifica_sua_" data-name="Você está cansado de perder dinheiro por não ter o controle de seu estoque, não conseguir acompanhar os processos de vendas, o desempenho financeiro da sua empresa e ainda não consegue cumprir obrigações fiscais? 

Pare de sofrer! A Quadria simplifica sua " transform="translate(960 4130)" font-size="20" font-family="Alfabet-Light, Alfabet" font-weight="300"><tspan x="0" y="20">Você está cansado de perder dinheiro por não ter o controle de </tspan><tspan x="0" y="50">seu estoque, não conseguir acompanhar os processos de vendas, </tspan><tspan x="0" y="80">o desempenho financeiro da sua empresa e ainda não consegue </tspan><tspan x="0" y="110">cumprir obrigações fiscais? </tspan><tspan x="0" y="140"></tspan><tspan x="0" y="170">Pare de sofrer! A Quadria simplifica sua jornada com soluções </tspan><tspan x="0" y="200">inteligentes desenvolvidas por quem tem mais de 2 décadas de </tspan><tspan x="0" y="230">experiência no varejo.</tspan><tspan x="0" y="260"></tspan></text>
      <g id="Grupo_153" data-name="Grupo 153" transform="translate(340.425 4024)">
        <g id="Grupo_152" data-name="Grupo 152" clip-path="url(#clip-path)">
          <path id="Caminho_180" data-name="Caminho 180" d="M635.143,195.2l14.295-89.878a8.872,8.872,0,0,1,17.525,2.787l-4.937,31.044L691,157.112c5.537,3.279,7.763,9.657,7.211,15.306l-10.9,38.094L676.56,212.3l-29.411-5.43Z" transform="translate(-182.068 -28.048)" fill="#ff6e2e"/>
          <path id="Caminho_181" data-name="Caminho 181" d="M681.235,179.449a7.116,7.116,0,1,1-14.055-2.236l4.244-26.687a7.116,7.116,0,1,1,14.055,2.236Z" transform="translate(-191.226 -41.43)" fill="#ff6e2e"/>
          <path id="Caminho_182" data-name="Caminho 182" d="M673.949,188.5a7.853,7.853,0,0,1-1.241-.1,7.8,7.8,0,0,1-6.478-8.927l4.244-26.688,1.35.215-4.244,26.688a6.432,6.432,0,1,0,12.7,2.021l3.42-21.5,1.35.215-3.42,21.5a7.8,7.8,0,0,1-7.686,6.576" transform="translate(-190.951 -43.797)" fill="#fff"/>
          <path id="Caminho_183" data-name="Caminho 183" d="M699.615,189.887a7.116,7.116,0,1,1-14.055-2.236l4.244-26.687a7.116,7.116,0,1,1,14.055,2.235Z" transform="translate(-196.495 -44.422)" fill="#ff6e2e"/>
          <path id="Caminho_184" data-name="Caminho 184" d="M692.329,198.937a7.945,7.945,0,0,1-1.241-.1,7.81,7.81,0,0,1-6.478-8.927l4.245-26.688,1.35.215-4.245,26.688a6.433,6.433,0,1,0,12.705,2.021l3.4-21.4,1.35.215-3.4,21.4a7.8,7.8,0,0,1-7.686,6.576" transform="translate(-196.22 -46.789)" fill="#fff"/>
          <path id="Caminho_185" data-name="Caminho 185" d="M717.994,200.325a7.116,7.116,0,1,1-14.055-2.236l4.244-26.687a7.116,7.116,0,1,1,14.055,2.235Z" transform="translate(-201.764 -47.414)" fill="#ff6e2e"/>
          <path id="Caminho_186" data-name="Caminho 186" d="M710.7,209.374a7.805,7.805,0,0,1-7.707-9.025l4.244-26.687,1.35.215-4.244,26.687a6.432,6.432,0,1,0,12.7,2.02l4.244-26.687,1.35.215L718.4,202.8a7.813,7.813,0,0,1-7.7,6.575" transform="translate(-201.489 -49.781)" fill="#fff"/>
          <path id="Caminho_187" data-name="Caminho 187" d="M630.381,211.105l-8.832-19.389c-2.52-6.117-5.864-12.047-1.465-16.746l20.057-17.292c7.278-5.829,19.681,5.035,9.261,14.651l-10.005,10c-3.575,3.5,18.968,13.942,16,32.626Z" transform="translate(-177.138 -44.73)" fill="#ff6e2e"/>
          <path id="Caminho_188" data-name="Caminho 188" d="M663.167,210.847c-.214-9.625-7.35-16.868-12.072-21.66-2.764-2.806-4.591-4.66-4.576-6.26a1.867,1.867,0,0,1,.59-1.357l10-9.995c4.995-4.609,4.358-9.234,2.1-12.031s-6.66-4.283-10.087-1.878l-.785-1.118c4.082-2.865,9.274-1.163,11.936,2.137,2.522,3.129,3.455,8.639-2.219,13.875l-9.986,9.98a.53.53,0,0,0-.185.4c-.009,1.032,2.028,3.1,4.185,5.288,4.874,4.946,12.239,12.421,12.464,22.589Z" transform="translate(-185.329 -44.458)" fill="#fff"/>
          <path id="Caminho_189" data-name="Caminho 189" d="M412.391,285.966c96.374,31.707,109.7,62.192,150.26-51.663L614.8,249.629c-31.687,100.483-76.49,162.385-215.927,107.121-32.274-10.517-10.625-74.965,13.516-70.784" transform="translate(-109.671 -67.165)" fill="#0521e3"/>
          <path id="Caminho_190" data-name="Caminho 190" d="M258.307,302.352h92.758c27.013,0,41.99,26.971,41.99,48.079V515.773H218.918V334.159c0-23.576,18.868-31.807,39.389-31.807" transform="translate(-62.754 -86.671)" fill="#0521e3"/>
          <path id="Caminho_191" data-name="Caminho 191" d="M383.477,548.965l22.939-17.074L389.059,343.029l8.992-12.273-14.574-14.863-14.588,14.863,9.006,12.273L360.741,531.891Z" transform="translate(-103.409 -90.553)" fill="#fff"/>
          <path id="Caminho_192" data-name="Caminho 192" d="M391.321,336.706l-18.565-21.075-18.629,18.73L321.3,310.215l1.39-1.89,31.194,22.948,18.97-19.073,16.681,18.935,1.932-18.675,2.333.241Z" transform="translate(-92.104 -88.384)" fill="#fff"/>
          <path id="Caminho_193" data-name="Caminho 193" d="M391.791,404.686l-.069-.048a184.351,184.351,0,0,1-65.533,58.137L298.6,410.2a124.517,124.517,0,0,0,44.274-39.284l-1.4-.964-46.367-32a66.066,66.066,0,0,1-23.486,20.855L297.809,408.7a121.573,121.573,0,0,1-56.691,14.027h0A121.578,121.578,0,0,1,184.424,408.7l-.789,1.5-27.591,52.573a183.922,183.922,0,0,1-86.081-97.182,181.472,181.472,0,0,1-10.547-42.846,183.107,183.107,0,0,1,.019-44.124,181.972,181.972,0,0,1,31.153-81.842,184.344,184.344,0,0,1,65.523-58.062,182.15,182.15,0,0,1,85-20.979h0a182.791,182.791,0,0,1,43.784,5.307l-14.211,57.659-.407,1.649a121.017,121.017,0,0,1,27.457,10.441A122.507,122.507,0,0,1,355.1,257.453a120.937,120.937,0,0,1,7.046,28.534,118.3,118.3,0,0,1,.02,29.4,120.943,120.943,0,0,1-7.011,28.552l1.587.6,55.522,21.057.078.03A181.591,181.591,0,0,0,422.9,322.755a183.165,183.165,0,0,0-.019-44.142,182.06,182.06,0,0,0-31.167-81.88,184.414,184.414,0,0,0-65.554-58.09,181.836,181.836,0,0,0-41.24-15.679L298.8,66.641a240.775,240.775,0,0,0-57.687-6.993h0A241.177,241.177,0,0,0,129.052,514.2L156,462.849a182.215,182.215,0,0,0,85.113,21.025h0a182.209,182.209,0,0,0,85.11-21.025L353.181,514.2a242.842,242.842,0,0,0,86.33-76.577Z" transform="translate(0 -17.099)" fill="#00faff"/>
          <path id="Caminho_194" data-name="Caminho 194" d="M476.662,400.962l-22.579,81.479a5.388,5.388,0,0,1-4.861,3.806H332.562l-4.3,2.587-3.43-3.371a2.984,2.984,0,0,1-.655-3.022l23.591-85.134a5.388,5.388,0,0,1,4.861-3.806H474.923a2.869,2.869,0,0,1,2.3,1l3.264,3.2Z" transform="translate(-92.886 -112.8)" fill="#fff"/>
          <path id="Caminho_195" data-name="Caminho 195" d="M458.79,487.147a5.388,5.388,0,0,1-4.861,3.806H331.634a2.8,2.8,0,0,1-2.751-3.806l23.591-85.134a5.388,5.388,0,0,1,4.861-3.806H479.629a2.8,2.8,0,0,1,2.752,3.806Z" transform="translate(-94.235 -114.149)"/>
          <path id="Caminho_196" data-name="Caminho 196" d="M447.781,465.951l-.006,0a31.548,31.548,0,0,1-4.182,3.417,29.91,29.91,0,0,1-4.633,2.6l-1.017-5.441a20.169,20.169,0,0,0,3.13-1.756,21.342,21.342,0,0,0,2.826-2.309l-.111-.1-3.679-3.312a11.292,11.292,0,0,1-1.5,1.226,10.667,10.667,0,0,1-1.661.932l.966,5.164a17.251,17.251,0,0,1-3.211,1.084,14.193,14.193,0,0,1-3.147.369,11.13,11.13,0,0,1-2.9-.369,8.814,8.814,0,0,1-2.479-1.084l-.134.156-4.694,5.441a11.683,11.683,0,0,1-2.876-2.6,11.916,11.916,0,0,1-1.873-3.417,13.822,13.822,0,0,1-.761-4.041,17.4,17.4,0,0,1,.407-4.434,21.207,21.207,0,0,1,.631-2.276,23.638,23.638,0,0,1,.914-2.291,26.689,26.689,0,0,1,2.593-4.433,30.175,30.175,0,0,1,3.493-4.038,31.467,31.467,0,0,1,4.182-3.413,29.852,29.852,0,0,1,4.63-2.6A25.9,25.9,0,0,1,437.5,436.8a21.285,21.285,0,0,1,4.717-.549,16.708,16.708,0,0,1,4.346.549l-3.487,5.968-.1.171a8.8,8.8,0,0,1,2.477,1.081,7.785,7.785,0,0,1,1.916,1.728,7.951,7.951,0,0,1,1.25,2.273,9.189,9.189,0,0,1,.51,2.69,11.577,11.577,0,0,1-.269,2.953,14.027,14.027,0,0,1-.42,1.529,15.713,15.713,0,0,1-.606,1.513,17.776,17.776,0,0,1-1.723,2.955l.143.062,5.01,2.179.006,0a26.669,26.669,0,0,0,2.592-4.437,23.675,23.675,0,0,0,.906-2.276,21.027,21.027,0,0,0,.636-2.292,17.4,17.4,0,0,0,.4-4.435,13.818,13.818,0,0,0-.765-4.04,11.912,11.912,0,0,0-1.876-3.415,11.7,11.7,0,0,0-2.877-2.6,13.25,13.25,0,0,0-3.72-1.623l3.406-5.829a22.02,22.02,0,0,0-5.725-.723,28.064,28.064,0,0,0-6.215.723,34.154,34.154,0,0,0-6.343,2.138,39.427,39.427,0,0,0-6.1,3.42,41.61,41.61,0,0,0-5.509,4.5,39.77,39.77,0,0,0-4.6,5.32,35.152,35.152,0,0,0-3.415,5.839,31.3,31.3,0,0,0-1.2,3.016,27.906,27.906,0,0,0-.832,3,22.913,22.913,0,0,0-.535,5.842,18.223,18.223,0,0,0,1,5.323,15.684,15.684,0,0,0,2.469,4.5,15.369,15.369,0,0,0,3.789,3.425l4.585-5.314a13.268,13.268,0,0,0,3.722,1.626,16.748,16.748,0,0,0,4.351.55,21.343,21.343,0,0,0,4.724-.55,25.953,25.953,0,0,0,4.821-1.626l.993,5.314a39.357,39.357,0,0,0,6.1-3.425,41.551,41.551,0,0,0,5.511-4.5Z" transform="translate(-117.38 -123.332)" fill="#00faff"/>
          <path id="Caminho_197" data-name="Caminho 197" d="M281.461,452.352l4.611-6.287c6.827-3.66,10.376-5.7,14.288-7.887,8.917-4.993,20.677-26.324,28.972-22.313,8.66,4.923,1.116,13.362-6.593,24.552-3.233,4.973-1.515,11.641,3.707,11.144,9.655-1.186,19.419-2.689,27.127-16.614,6.466-10.693,22.242-4.685,14.036,8.992,7.212-8.7,15.815-.042,10.841,9.656,7.957-5.471,12.92,5.224,6.206,15.42-12.433,15.417-31.083,30.337-75.843,31.58l-23.623,1.741Z" transform="translate(-80.683 -119.067)" fill="#ff6e2e"/>
          <path id="Caminho_198" data-name="Caminho 198" d="M187.322,317.075,99.847,406.652c-42.565,39.217-13.928,113.353,39.909,95.534l111.99-29.758L237.7,412.78,167.05,432.766l31.542-19.623,19.431-46.168Z" transform="translate(-22.735 -90.892)" fill="#0521e3"/>
          <path id="Caminho_199" data-name="Caminho 199" d="M191.563,474.158l38.587-24.006,1.239,1.992-24.5,15.239,62.666-17.727.638,2.258Z" transform="translate(-54.913 -128.897)" fill="#00faff"/>
          <path id="Caminho_200" data-name="Caminho 200" d="M363.582,243.231l17.982-2.769c7.152-1.1,10.806-4.505,7.4-13.379L364.512,162l-56.448,8.693,4.814,95.437,58.74.03Z" transform="translate(-88.309 -46.439)" fill="#ff6e2e"/>
          <path id="Caminho_201" data-name="Caminho 201" d="M351.728,93.767a24.366,24.366,0,0,0-19.652,17.193A19.02,19.02,0,0,0,304.649,126.1a14.593,14.593,0,0,0-24.108,13.169c.108.7,22.563,72.72,22.563,72.72l15.782-63.821,40.266-6.2a24.386,24.386,0,0,0-7.424-48.2" transform="translate(-80.369 -26.797)" fill="#0521e3"/>
          <path id="Caminho_202" data-name="Caminho 202" d="M329.293,205.382a10.767,10.767,0,1,0-9,12.28,10.766,10.766,0,0,0,9-12.28" transform="translate(-88.257 -56.257)" fill="#ff6e2e"/>
          <path id="Caminho_203" data-name="Caminho 203" d="M359.758,196.736a4.241,4.241,0,1,0-3.546,4.837,4.241,4.241,0,0,0,3.546-4.837" transform="translate(-100.71 -55.365)"/>
          <path id="Caminho_204" data-name="Caminho 204" d="M346.451,191.681a.868.868,0,0,1-.744-1.315,9.581,9.581,0,0,1,14.4-2.4.868.868,0,1,1-1.12,1.328,7.842,7.842,0,0,0-11.787,1.963.869.869,0,0,1-.746.422" transform="translate(-99.064 -53.235)"/>
          <path id="Caminho_205" data-name="Caminho 205" d="M392.175,191.744a4.241,4.241,0,1,0-3.546,4.837,4.241,4.241,0,0,0,3.546-4.837" transform="translate(-110.003 -53.934)"/>
          <path id="Caminho_206" data-name="Caminho 206" d="M378.869,186.688a.868.868,0,0,1-.743-1.315,9.579,9.579,0,0,1,14.4-2.4A.869.869,0,1,1,391.4,184.3a7.841,7.841,0,0,0-11.786,1.964.869.869,0,0,1-.746.422" transform="translate(-108.357 -51.803)"/>
          <path id="Caminho_207" data-name="Caminho 207" d="M375.782,195.69,388.163,211.9l-8.94,1.377Z" transform="translate(-107.721 -56.096)"/>
          <path id="Caminho_208" data-name="Caminho 208" d="M320.9,214.586a4.174,4.174,0,0,1-1.325-.212,3.393,3.393,0,0,1-2.378-3.851,4.519,4.519,0,0,1,2.221-3.182,5.783,5.783,0,0,1,3.977-.6,4.882,4.882,0,0,0-8.807,4.142.868.868,0,1,1-1.626.611,6.617,6.617,0,1,1,12.311.2,4.942,4.942,0,0,1-4.373,2.9m1.314-6.227a3.894,3.894,0,0,0-1.927.487,2.772,2.772,0,0,0-1.379,1.969,1.674,1.674,0,0,0,1.218,1.912,3,3,0,0,0,3.575-1.773,4.69,4.69,0,0,0,.32-2.32.869.869,0,0,1-.434-.041,4.035,4.035,0,0,0-1.373-.235" transform="translate(-89.592 -58.062)"/>
          <path id="Caminho_209" data-name="Caminho 209" d="M375.478,275.873l-25.916,3.991L383.513,298.8Z" transform="translate(-100.204 -79.081)"/>
          <path id="Caminho_210" data-name="Caminho 210" d="M386.267,243.623c-4.9.755-9.455-1.4-10.4-7.525l18.053-2.78c.944,6.129-2.75,9.55-7.653,10.3" transform="translate(-107.745 -66.882)"/>
          <path id="Caminho_211" data-name="Caminho 211" d="M393.92,233.318a11.33,11.33,0,0,1,.093,2.8L376.622,238.8a11.318,11.318,0,0,1-.755-2.7Z" transform="translate(-107.745 -66.882)" fill="#fff"/>
          <path id="Caminho_212" data-name="Caminho 212" d="M555.89,75.243l-25.308,58.592h-49.9l-25.3-58.692a55.967,55.967,0,0,1-4.08-20.762,54.381,54.381,0,1,1,108.762,0,55.416,55.416,0,0,1-4.173,20.862" transform="translate(-129.369)" fill="#ff6e2e"/>
          <rect id="Retângulo_107" data-name="Retângulo 107" width="49.94" height="35.949" transform="translate(351.287 133.834)" fill="#154e6e"/>
          <path id="Caminho_213" data-name="Caminho 213" d="M532.777,248.061c1.745,0,3.284-.308,4.207-2.155l3.9-7.9H495.73l3.9,7.9c.923,1.847,2.462,2.155,4.207,2.155Z" transform="translate(-142.105 -68.226)"/>
          <path id="Caminho_214" data-name="Caminho 214" d="M544.959,199.871a3.8,3.8,0,0,1-3.8,3.8h-51.7a3.8,3.8,0,0,1,0-7.6h51.7a3.8,3.8,0,0,1,3.8,3.8" transform="translate(-139.219 -56.205)"/>
          <path id="Caminho_215" data-name="Caminho 215" d="M544.959,220.617a3.8,3.8,0,0,1-3.8,3.8h-51.7a3.8,3.8,0,0,1,0-7.6h51.7a3.8,3.8,0,0,1,3.8,3.8" transform="translate(-139.219 -62.152)"/>
          <path id="Caminho_216" data-name="Caminho 216" d="M521.66,157.917l-4.212-.015,6.847-49.637H501.24l6.847,49.637-4.178.049-6.872-49.685h-9.668a12.1,12.1,0,1,1,0-24.194c5.881,0,11.223,4.466,11.908,9.955l1.388,10.075h24.2L526.262,94c.681-5.462,6.023-9.928,11.9-9.928a12.1,12.1,0,1,1,0,24.194H528.5Zm7.413-53.815h9.093a7.934,7.934,0,1,0,0-15.868c-3.789,0-7.35,2.889-7.775,6.308Zm-41.7-15.868a7.934,7.934,0,1,0,0,15.868h9.093l-1.315-9.532c-.429-3.446-3.99-6.335-7.778-6.335" transform="translate(-136.24 -24.1)" fill="#fff"/>
        </g>
      </g>
      <g id="Grupo_154" data-name="Grupo 154" transform="translate(960 4455)">
        <rect id="Retângulo_49" data-name="Retângulo 49" width="355" height="67" rx="33.5" fill="#00faff"/>
        <text id="Maximize_seu_negócio" data-name="Maximize seu negócio" transform="translate(178 43)" fill="#0521e3" font-size="22" font-family="Alfabet-Regular, Alfabet"><tspan x="-115" y="0">Maximize seu negócio</tspan></text>
      </g>
    </g>
  </g>
</svg>
