<svg id="Grupo_2" data-name="Grupo 2" xmlns="http://www.w3.org/2000/svg" xmlns:xlink="http://www.w3.org/1999/xlink" width="200" height="52.707" viewBox="0 0 200 52.707">
  <defs>
    <clipPath id="clip-path">
      <rect id="Retângulo_1" data-name="Retângulo 1" width="200" height="52.707" fill="none"/>
    </clipPath>
  </defs>
  <g id="Grupo_1" data-name="Grupo 1" clip-path="url(#clip-path)">
    <path id="Caminho_1" data-name="Caminho 1" d="M45.429,40.009,45.421,40a21.369,21.369,0,0,1-7.6,6.741h0l-3.2-6.1a14.441,14.441,0,0,0,5.134-4.555l-.162-.112-5.376-3.711A7.661,7.661,0,0,1,31.5,34.689l3.036,5.785A14.1,14.1,0,0,1,27.958,42.1h0a14.1,14.1,0,0,1-6.574-1.626l-.092.174-3.2,6.1A21.323,21.323,0,0,1,8.113,35.476a21.037,21.037,0,0,1-1.223-4.968,21.232,21.232,0,0,1,0-5.116A21.109,21.109,0,0,1,10.5,15.9,21.373,21.373,0,0,1,18.1,9.17,21.2,21.2,0,0,1,33.035,7.352l-1.648,6.686-.047.191a14.056,14.056,0,0,1,3.184,1.211,14.206,14.206,0,0,1,6.652,7.5,14.022,14.022,0,0,1,.817,3.308,13.714,13.714,0,0,1,0,3.408,14.021,14.021,0,0,1-.813,3.311l.184.07L47.8,35.476l.009,0a21.049,21.049,0,0,0,1.223-4.971,21.228,21.228,0,0,0,0-5.119A21.112,21.112,0,0,0,45.42,15.9a21.387,21.387,0,0,0-7.6-6.735,21.1,21.1,0,0,0-4.782-1.818L34.647.812a27.961,27.961,0,0,0-19.683,51.9l3.125-5.954a21.131,21.131,0,0,0,9.869,2.438h0a21.131,21.131,0,0,0,9.869-2.438l3.125,5.954a28.158,28.158,0,0,0,10.01-8.879Z" transform="translate(0 -0.001)" fill="#0521e3"/>
    <path id="Caminho_2" data-name="Caminho 2" d="M185.634,44.877V73.243h-4.828V62.419a7.1,7.1,0,0,1-6.2,3.219c-5.512,0-9.7-4.667-9.7-10.743,0-6.035,4.145-10.622,9.657-10.622a7.156,7.156,0,0,1,6.518,3.621V44.877Zm-4.064,10.059c0-3.943-2.575-6.478-6.076-6.478-3.38,0-5.874,2.535-5.874,6.437s2.495,6.518,5.874,6.518c3.5,0,6.076-2.534,6.076-6.478" transform="translate(-104.04 -27.931)" fill="#0521e3"/>
    <path id="Caminho_3" data-name="Caminho 3" d="M232.6,57.859V45.909h4.828v12.03a4.328,4.328,0,1,0,8.651,0V45.909h4.828v11.95c0,5.512-3.541,8.811-9.174,8.811s-9.134-3.3-9.134-8.811" transform="translate(-146.744 -28.963)" fill="#0521e3"/>
    <path id="Caminho_4" data-name="Caminho 4" d="M311.113,44.878V65h-4.547V62.1a6.932,6.932,0,0,1-6.237,3.54c-5.351,0-9.415-4.546-9.415-10.622,0-6.035,4.064-10.743,9.455-10.743a6.739,6.739,0,0,1,5.915,3.138V44.878Zm-4.1,10.1c0-3.943-2.454-6.478-5.754-6.478s-5.673,2.616-5.673,6.518c0,3.862,2.374,6.4,5.673,6.4s5.754-2.535,5.754-6.437" transform="translate(-183.532 -27.932)" fill="#0521e3"/>
    <path id="Caminho_5" data-name="Caminho 5" d="M375.1,18.658V48.835H370.55v-2.9a6.932,6.932,0,0,1-6.237,3.54c-5.351,0-9.415-4.546-9.415-10.622,0-6.035,4.064-10.743,9.455-10.743a6.739,6.739,0,0,1,5.915,3.138V18.658Zm-4.1,20.158c0-3.943-2.454-6.478-5.754-6.478s-5.673,2.616-5.673,6.518c0,3.862,2.374,6.4,5.673,6.4s5.754-2.535,5.754-6.437" transform="translate(-223.898 -11.771)" fill="#0521e3"/>
    <path id="Caminho_6" data-name="Caminho 6" d="M434.438,44.556v4.627a6.931,6.931,0,0,0-2.776-.523c-2.857,0-5.231,1.65-5.231,5.553V65H421.6V44.878h4.506v4.265a6.58,6.58,0,0,1,6.237-4.868,8.223,8.223,0,0,1,2.092.282" transform="translate(-265.981 -27.932)" fill="#0521e3"/>
    <path id="Caminho_7" data-name="Caminho 7" d="M462.477,23.488a3.059,3.059,0,0,1,6.116,0,3.065,3.065,0,0,1-6.116,0m.6,6.4h4.828V50h-4.828Z" transform="translate(-291.767 -12.94)" fill="#0521e3"/>
    <path id="Caminho_8" data-name="Caminho 8" d="M507.306,44.878V65H502.76V62.1a6.932,6.932,0,0,1-6.237,3.54c-5.351,0-9.415-4.546-9.415-10.622,0-6.035,4.064-10.743,9.455-10.743a6.739,6.739,0,0,1,5.915,3.138V44.878Zm-4.1,10.1c0-3.943-2.454-6.478-5.754-6.478s-5.673,2.616-5.673,6.518c0,3.862,2.374,6.4,5.673,6.4s5.754-2.535,5.754-6.437" transform="translate(-307.306 -27.932)" fill="#0521e3"/>
  </g>
</svg>
