<svg xmlns="http://www.w3.org/2000/svg" xmlns:xlink="http://www.w3.org/1999/xlink" width="59.163" height="59.148" viewBox="0 0 59.163 59.148">
  <defs>
    <clipPath id="clip-path">
      <rect id="Retângulo_27" data-name="Retângulo 27" width="59.163" height="59.148" transform="translate(0 0)" fill="#ff6e2e"/>
    </clipPath>
  </defs>
  <g id="Grupo_106" data-name="Grupo 106" transform="translate(0 0)">
    <g id="Grupo_38" data-name="Grupo 38" clip-path="url(#clip-path)">
      <path id="Caminho_63" data-name="Caminho 63" d="M44.838,29.577c-.044.593-.1,1.185-.13,1.779a.636.636,0,0,1-.533.648c-.725.188-1.442.4-2.167.593a1,1,0,0,0-.758.708,11.993,11.993,0,0,1-.777,1.858,1.046,1.046,0,0,0,.047,1.092c.372.628.715,1.273,1.092,1.9a.638.638,0,0,1-.066.831,16.957,16.957,0,0,1-2.563,2.561.64.64,0,0,1-.833.049c-.609-.367-1.24-.7-1.847-1.064a1.155,1.155,0,0,0-1.2-.039,17.261,17.261,0,0,1-1.7.708,1.142,1.142,0,0,0-.821.868c-.16.672-.388,1.327-.543,2a.764.764,0,0,1-.807.646,17.238,17.238,0,0,1-3.276,0c-.464-.046-.736-.19-.843-.677-.148-.673-.379-1.329-.544-2a1.073,1.073,0,0,0-.787-.827,10.448,10.448,0,0,1-1.752-.733,1.075,1.075,0,0,0-1.144.037c-.609.366-1.24.7-1.847,1.064a.67.67,0,0,1-.882-.053,17.414,17.414,0,0,1-2.523-2.519.667.667,0,0,1-.071-.881c.36-.589.675-1.207,1.037-1.8a1.191,1.191,0,0,0,.058-1.248c-.275-.57-.514-1.159-.732-1.752a1.072,1.072,0,0,0-.8-.743c-.707-.178-1.4-.4-2.111-.575a.689.689,0,0,1-.568-.686,16.233,16.233,0,0,1,0-3.5.689.689,0,0,1,.568-.686c.706-.179,1.4-.4,2.11-.577a1.034,1.034,0,0,0,.8-.743,11.01,11.01,0,0,1,.754-1.805,1.078,1.078,0,0,0-.05-1.144c-.366-.609-.7-1.238-1.063-1.848a.639.639,0,0,1,.034-.834,16.842,16.842,0,0,1,2.6-2.6.608.608,0,0,1,.784-.045c.628.372,1.273.714,1.9,1.089a1.075,1.075,0,0,0,1.144.037,10.167,10.167,0,0,1,1.752-.732,1.107,1.107,0,0,0,.8-.883c.167-.69.384-1.367.563-2.054a.658.658,0,0,1,.638-.548,16.514,16.514,0,0,1,3.563,0,.687.687,0,0,1,.674.581c.174.688.392,1.366.561,2.055a1.069,1.069,0,0,0,.769.843,10.93,10.93,0,0,1,1.806.753,1.047,1.047,0,0,0,1.093-.034c.612-.36,1.243-.691,1.847-1.064a.7.7,0,0,1,.93.057,17.529,17.529,0,0,1,2.517,2.527.639.639,0,0,1,.063.832c-.367.608-.694,1.24-1.064,1.847a1.162,1.162,0,0,0-.053,1.2c.27.572.517,1.157.732,1.752a1.105,1.105,0,0,0,.839.774c.69.17,1.367.391,2.056.562a.669.669,0,0,1,.59.723c0,.577.158,1.144.127,1.725m-5.6-.008a9.653,9.653,0,1,0-9.675,9.656,9.636,9.636,0,0,0,9.675-9.656" fill="#ff6e2e"/>
      <path id="Caminho_64" data-name="Caminho 64" d="M11.549,43.487a3.1,3.1,0,0,1,1.7.367c.452.261.716.124,1.034-.207.809-.845,1.66-1.651,2.472-2.493.309-.321.531-.334.844,0,.9.961.929.7,0,1.651-.714.724-1.426,1.45-2.162,2.151a.66.66,0,0,0-.151.9A4.1,4.1,0,1,1,10.5,43.624a3.153,3.153,0,0,1,1.051-.137" fill="#ff6e2e"/>
      <path id="Caminho_65" data-name="Caminho 65" d="M47.566,51.711a4.109,4.109,0,0,1-3.716-5.765.8.8,0,0,0-.2-1.085c-.867-.814-1.682-1.684-2.537-2.51-.288-.279-.3-.467,0-.744,1.023-.949.722-1,1.735-.006.725.713,1.448,1.429,2.154,2.16a.6.6,0,0,0,.8.141,4.109,4.109,0,0,1,5.914,3.6,4.194,4.194,0,0,1-4.152,4.207" fill="#ff6e2e"/>
      <path id="Caminho_66" data-name="Caminho 66" d="M15.674,11.889a3.45,3.45,0,0,1-.433,1.489.547.547,0,0,0,.129.754c.879.859,1.73,1.746,2.617,2.6.348.335.335.564-.012.887-.908.847-.682.9-1.571.021-.751-.743-1.5-1.485-2.237-2.243a.6.6,0,0,0-.8-.153,4.109,4.109,0,0,1-5.921-3.595,4.122,4.122,0,0,1,7.132-2.871,4.358,4.358,0,0,1,1.1,3.115" fill="#ff6e2e"/>
      <path id="Caminho_67" data-name="Caminho 67" d="M47.573,15.665a3.316,3.316,0,0,1-1.721-.4.634.634,0,0,0-.894.167c-.828.854-1.69,1.676-2.515,2.533-.319.331-.549.381-.887.018-.869-.936-.917-.692-.006-1.613.729-.737,1.455-1.476,2.2-2.194a.63.63,0,0,0,.149-.848A4.1,4.1,0,0,1,47.493,7.45a4.108,4.108,0,1,1,.08,8.215" fill="#ff6e2e"/>
      <path id="Caminho_68" data-name="Caminho 68" d="M48.69,28.724c.576,0,1.153-.023,1.727.008a.682.682,0,0,0,.791-.54,4.006,4.006,0,0,1,4.23-2.69,4.09,4.09,0,1,1-4.171,5.592.9.9,0,0,0-1.046-.682c-1.111.04-2.226,0-3.339.018-.426.007-.622-.11-.625-.58-.008-1.126-.029-1.126,1.109-1.126H48.69" fill="#ff6e2e"/>
      <path id="Caminho_69" data-name="Caminho 69" d="M10.484,30.424c-.173,0-.347.015-.518,0A1.979,1.979,0,0,0,7.539,31.7,3.847,3.847,0,0,1,2.671,33.42,4.129,4.129,0,0,1,.064,28.854,4.05,4.05,0,0,1,4.029,25.5a3.949,3.949,0,0,1,3.909,2.657.762.762,0,0,0,.882.578c1.151-.026,2.3.008,3.454-.016.474-.01.636.155.633.63-.008,1.077.013,1.077-1.041,1.077H10.484" fill="#ff6e2e"/>
      <path id="Caminho_70" data-name="Caminho 70" d="M30.432,48.683c0,.576.025,1.153-.008,1.726a.683.683,0,0,0,.545.788,4,4,0,0,1,2.687,4.176,4.09,4.09,0,1,1-5.59-4.119.9.9,0,0,0,.677-1.049c-.039-1.073.021-2.15-.024-3.223-.024-.6.2-.808.764-.727a.882.882,0,0,0,.115,0c.831,0,.832,0,.834.815,0,.537,0,1.075,0,1.612" fill="#ff6e2e"/>
      <path id="Caminho_71" data-name="Caminho 71" d="M28.732,10.477c0-.556-.026-1.114.008-1.669a.747.747,0,0,0-.586-.875,4,4,0,0,1-2.645-4.2,4.089,4.089,0,0,1,7.93-1,4.03,4.03,0,0,1-2.333,5.157.9.9,0,0,0-.686,1.043c.041,1.131,0,2.264.018,3.4.006.425-.155.566-.573.571-1.133.016-1.133.031-1.133-1.1V10.477" fill="#ff6e2e"/>
      <path id="Caminho_72" data-name="Caminho 72" d="M37.784,29.555a8.2,8.2,0,1,1-8.145-8.185,8.276,8.276,0,0,1,8.145,8.185m-3.49.051a4.715,4.715,0,1,0-4.733,4.682,4.646,4.646,0,0,0,4.733-4.682" fill="#ff6e2e"/>
      <path id="Caminho_73" data-name="Caminho 73" d="M32.844,29.59A3.263,3.263,0,1,1,29.6,26.312a3.259,3.259,0,0,1,3.244,3.278" fill="#ff6e2e"/>
    </g>
  </g>
</svg>
