<?xml version="1.0" standalone="no"?>
<svg xmlns:xlink="http://www.w3.org/1999/xlink" id="wave" style="transform:rotate(0deg); transition: 0.3s" viewBox="0 0 1440 490" version="1.1" xmlns="http://www.w3.org/2000/svg"><defs><linearGradient id="sw-gradient-0" x1="0" x2="0" y1="1" y2="0"><stop stop-color="rgba(5, 33, 227, 1)" offset="0%"/><stop stop-color="rgba(5, 33, 227, 1)" offset="100%"/></linearGradient></defs><path style="transform:translate(0, 0px); opacity:1" fill="url(#sw-gradient-0)" d="M0,245L80,204.2C160,163,320,82,480,57.2C640,33,800,65,960,130.7C1120,196,1280,294,1440,318.5C1600,343,1760,294,1920,277.7C2080,261,2240,278,2400,253.2C2560,229,2720,163,2880,122.5C3040,82,3200,65,3360,65.3C3520,65,3680,82,3840,114.3C4000,147,4160,196,4320,212.3C4480,229,4640,212,4800,204.2C4960,196,5120,196,5280,179.7C5440,163,5600,131,5760,163.3C5920,196,6080,294,6240,294C6400,294,6560,196,6720,179.7C6880,163,7040,229,7200,277.7C7360,327,7520,359,7680,359.3C7840,359,8000,327,8160,277.7C8320,229,8480,163,8640,187.8C8800,212,8960,327,9120,351.2C9280,376,9440,310,9600,245C9760,180,9920,114,10080,106.2C10240,98,10400,147,10560,163.3C10720,180,10880,163,11040,163.3C11200,163,11360,180,11440,187.8L11520,196L11520,490L11440,490C11360,490,11200,490,11040,490C10880,490,10720,490,10560,490C10400,490,10240,490,10080,490C9920,490,9760,490,9600,490C9440,490,9280,490,9120,490C8960,490,8800,490,8640,490C8480,490,8320,490,8160,490C8000,490,7840,490,7680,490C7520,490,7360,490,7200,490C7040,490,6880,490,6720,490C6560,490,6400,490,6240,490C6080,490,5920,490,5760,490C5600,490,5440,490,5280,490C5120,490,4960,490,4800,490C4640,490,4480,490,4320,490C4160,490,4000,490,3840,490C3680,490,3520,490,3360,490C3200,490,3040,490,2880,490C2720,490,2560,490,2400,490C2240,490,2080,490,1920,490C1760,490,1600,490,1440,490C1280,490,1120,490,960,490C800,490,640,490,480,490C320,490,160,490,80,490L0,490Z"/></svg>