<svg id="Grupo_118" data-name="Grupo 118" xmlns="http://www.w3.org/2000/svg" xmlns:xlink="http://www.w3.org/1999/xlink" width="449.236" height="458.76" viewBox="0 0 449.236 458.76">
  <defs>
    <clipPath id="clip-path">
      <rect id="Retângulo_89" data-name="Retângulo 89" width="449.236" height="458.76" fill="none"/>
    </clipPath>
  </defs>
  <g id="Grupo_117" data-name="Grupo 117" clip-path="url(#clip-path)">
    <path id="Caminho_124" data-name="Caminho 124" d="M169.531,142.912c.418-.957,2.452-.6,1.881.386-.855,1.3-1.768,2.682-2.674,4.133a14.077,14.077,0,0,1,.793-4.518m-7.076,19.517c-.631,6.222,6.1,6.6,7.852,2.824a130.766,130.766,0,0,1,7.914-14.663c2.2-3.367,2.647-6.313,5.082-3.607,3.548,4.213,6.075,5.894,15.714,9.365l7.438-1.919L213,124.342c-6.162-3.4-21.26-12.2-32.207-11.474-10.216,1.095-28.655,3.538-31.2,27.96-.456,11.35,1.434,22.336,6.472,22.057,3.867,0,4.139-2.217,3.918-4.759-2.03-8.186-1.654-17.436.605-17.436.648,0,.083,1.871-.083,2.786-.355,1.955.126,7.718,2.838,15.248a27.477,27.477,0,0,0-.887,3.7" transform="translate(13.817 10.426)" fill="#ff6e2e"/>
    <path id="Caminho_125" data-name="Caminho 125" d="M200.888,138.53c.444,7.319-4.88,12.421-12.642,16.856-4.435,2.662-6.67,8.347-10.441,6.794-3.548-2.661-3.754-6.128,1.348-12.782,4.658-5.1,1.331-8.65,6.876-14.86s15.3-2.883,14.86,3.993" transform="translate(16.191 12.129)" fill="#ff6e2e"/>
    <path id="Caminho_126" data-name="Caminho 126" d="M102.994,305.369l-26.235-8.25c-9.315-2.893-15.573,2.549-18.221,7.41l-5.959,10.938,87.041,47.417L154.863,335Z" transform="translate(4.858 27.38)" fill="#0521e3"/>
    <path id="Caminho_127" data-name="Caminho 127" d="M186.368,197.833,99.977,316.889l50.5,28.7,74.351-100.123L287.9,270.633l21.2-55.208-77.389-30.3c-19.643-8-33.49-3.637-45.35,12.709" transform="translate(9.238 16.746)"/>
    <path id="Caminho_128" data-name="Caminho 128" d="M283.714,94.349c-14.744,27.5-28.64,54.334-74.905,31.7l-13.977,32.005c51.078,23.122,78.766,24.348,106.843-15.17Z" transform="translate(18.003 8.718)" fill="#0521e3"/>
    <path id="Caminho_129" data-name="Caminho 129" d="M302.889,74.257H292.062c-4.306,0-6.764-1.671-5.565-7.2l8.487-40.494h33.988l5.814,56.569H301.2Z" transform="translate(26.446 2.455)" fill="#ff6e2e"/>
    <path id="Caminho_130" data-name="Caminho 130" d="M294.048,0a14.478,14.478,0,0,1,13.094,8.351,11.316,11.316,0,0,1,17.527,6.4,8.683,8.683,0,0,1,15.372,5.561c0,.423-6.684,44.815-6.684,44.815L318.292,29.024H294.048a14.512,14.512,0,1,1,0-29.024" transform="translate(25.83)" fill="#0521e3"/>
    <path id="Caminho_131" data-name="Caminho 131" d="M315.959,42.261a6.408,6.408,0,1,1,6.408,6.407,6.408,6.408,0,0,1-6.408-6.407" transform="translate(29.196 3.313)" fill="#ff6e2e"/>
    <path id="Caminho_132" data-name="Caminho 132" d="M305.618,39.251a2.523,2.523,0,1,1,2.523,2.523,2.523,2.523,0,0,1-2.523-2.523" transform="translate(28.24 3.394)"/>
    <path id="Caminho_133" data-name="Caminho 133" d="M312.294,36.748a.516.516,0,0,0,.4-.847,5.7,5.7,0,0,0-8.684-.107.517.517,0,1,0,.778.681,4.667,4.667,0,0,1,7.112.086.514.514,0,0,0,.4.187" transform="translate(28.08 3.127)"/>
    <path id="Caminho_134" data-name="Caminho 134" d="M292.871,39.251a2.524,2.524,0,1,1,2.523,2.523,2.523,2.523,0,0,1-2.523-2.523" transform="translate(27.063 3.394)"/>
    <path id="Caminho_135" data-name="Caminho 135" d="M299.547,36.748a.516.516,0,0,0,.4-.847,5.7,5.7,0,0,0-8.685-.107.517.517,0,0,0,.779.681,4.667,4.667,0,0,1,7.112.086.513.513,0,0,0,.4.187" transform="translate(26.902 3.127)"/>
    <path id="Caminho_136" data-name="Caminho 136" d="M301.109,38.829,295.3,49.487h5.383Z" transform="translate(27.287 3.588)"/>
    <path id="Caminho_137" data-name="Caminho 137" d="M319.261,44.207a3.938,3.938,0,1,1,7.223-1.231.517.517,0,1,1-1.012-.212,2.905,2.905,0,0,0-5.555-1.639,3.434,3.434,0,0,1,2.395-.007,2.691,2.691,0,0,1,1.594,1.67,2.019,2.019,0,0,1-1.05,2.48,2.541,2.541,0,0,1-1.162.275,3.012,3.012,0,0,1-2.433-1.337m.711-1.974a.614.614,0,0,1-.25.063,2.786,2.786,0,0,0,.4,1.336,1.788,1.788,0,0,0,2.263.719,1,1,0,0,0,.544-1.236,1.651,1.651,0,0,0-.99-1.033,2.192,2.192,0,0,0-.793-.142,2.462,2.462,0,0,0-1.171.293" transform="translate(29.449 3.532)" fill="#f37920"/>
    <path id="Caminho_138" data-name="Caminho 138" d="M301.619,70.223h15.6L299.935,79.1Z" transform="translate(27.715 6.489)" fill="#f37920"/>
    <path id="Caminho_139" data-name="Caminho 139" d="M298.525,60.151c2.953,0,5.435-1.678,5.435-5.368H293.09c0,3.69,2.482,5.368,5.435,5.368" transform="translate(27.083 5.062)"/>
    <path id="Caminho_140" data-name="Caminho 140" d="M293.09,54.783a6.763,6.763,0,0,0,.2,1.657h10.472a6.708,6.708,0,0,0,.2-1.657Z" transform="translate(27.083 5.062)" fill="#00faff"/>
    <path id="Caminho_141" data-name="Caminho 141" d="M338.636,78.3h-36.79c-15.7,0-28.239,16.051-28.239,28.611v98.4H377.238V118.93c0-23.133-23.222-40.631-38.6-40.631" transform="translate(25.282 7.235)" fill="#0521e3"/>
    <path id="Caminho_142" data-name="Caminho 142" d="M155.047,387.11l-26.985,5.306c-9.564,1.916-12.457,9.687-12.457,15.224V420.1h99.118V387.11Z" transform="translate(10.682 35.771)" fill="#0521e3"/>
    <path id="Caminho_143" data-name="Caminho 143" d="M361.693,285.624H273.444v-91.06H377.253l8.289,44.378c7.7,28.669-6.088,46.682-23.849,46.682" transform="translate(25.267 17.979)"/>
    <path id="Caminho_144" data-name="Caminho 144" d="M191.007,244.035,151.741,402.461h59.638l32.356-119.209h67.152V220.578H221.5c-15.637,0-25.8,5.215-30.491,23.457" transform="translate(14.022 20.382)"/>
    <path id="Caminho_145" data-name="Caminho 145" d="M302.127,229.35,288.477,212.1,298.805,99.71l-5.351-7.3,8.673-8.845,8.681,8.845-5.359,7.3L315.658,212.1Z" transform="translate(26.657 7.721)" fill="#00faff"/>
    <path id="Caminho_146" data-name="Caminho 146" d="M379.566,238.553l.328-1.827c-20.357-3.654-33.915-12.2-33.915-42.023h-1.856c0,32.947,17.034,40.546,35.443,43.849" transform="translate(31.798 17.991)" fill="#00faff"/>
    <path id="Caminho_147" data-name="Caminho 147" d="M290.665,97.511l11.049-12.543L312.8,96.115l19.532-14.369-.827-1.124L312.943,94.277l-11.29-11.351L291.726,94.2l-1.149-11.113-1.39.143Z" transform="translate(26.722 7.45)" fill="#00faff"/>
    <rect id="Retângulo_86" data-name="Retângulo 86" width="327.738" height="10.645" transform="translate(0 185.924)" fill="#00faff"/>
    <path id="Caminho_148" data-name="Caminho 148" d="M410.252,106.382c-24.363,16.431-31.349,82.842-35.314,126.469-1.7,15.3.566,31.162,14.164,44.193,7.932,10.2-1.133,15.3-9.632,10.766-30.029-20.964-118.981-19.265-132.58,6.232C238.958,312.172,259.922,315,273.52,315H376.637c24.363,0,27.2-13.6,32.295-34.561L426.5,110.469c1-8.995-6.681-10.379-16.244-4.088" transform="translate(22.653 9.472)" fill="#00faff"/>
    <path id="Caminho_149" data-name="Caminho 149" d="M237.976,431.493a2.412,2.412,0,0,0,2.331-1.8L271.7,310.235c2.491-9.547,6.951-10.346,10.937-10.346h78.14c3.985,0,8.446.8,10.935,10.342l31.395,119.462a2.413,2.413,0,1,0,4.667-1.227L376.381,309.008c-2.516-9.642-7.328-13.943-15.6-13.943h-78.14c-8.275,0-13.088,4.3-15.6,13.948L235.642,428.466a2.413,2.413,0,0,0,1.719,2.947,2.389,2.389,0,0,0,.615.08" transform="translate(21.767 27.265)" fill="#00faff"/>
    <path id="Caminho_150" data-name="Caminho 150" d="M17.259,442.28a2.662,2.662,0,0,0,2.561-1.94l69.7-247.52c2.761-10.578,7.683-11.459,12.08-11.459H243.348c4.4,0,9.318.882,12.065,11.41l68.476,247.277a2.662,2.662,0,0,0,5.13-1.421L260.553,191.387c-2.767-10.6-8.076-15.35-17.205-15.35H101.6c-9.13,0-14.44,4.747-17.216,15.389L14.7,438.9a2.661,2.661,0,0,0,1.841,3.283,2.616,2.616,0,0,0,.722.1" transform="translate(1.349 16.267)" fill="#00faff"/>
    <rect id="Retângulo_87" data-name="Retângulo 87" width="59.638" height="1.856" transform="translate(165.763 421.916)" fill="#00faff"/>
    <rect id="Retângulo_88" data-name="Retângulo 88" width="1.856" height="55.531" transform="matrix(0.517, -0.856, 0.856, 0.517, 108.733, 334.434)" fill="#00faff"/>
    <path id="Caminho_151" data-name="Caminho 151" d="M302.352,134.722l-15,39.536-9.241-3.887c-13.253-5.1-10.323-16.7-12.744-18.288-3.187-1.275-6.308,1.784-7.52,2.676-1.083,1.083-4.843,6.881-7.072,9.557-3.823,4.525-9.685-2.868-8.285-5.352,1.276-1.848,5.735-8.985,7.647-11.216.446-.574.128-1.784-.956-.637-2.1,2.421-4.4,7.2-7.581,11.087-4.207,4.844-11.088-1.21-8.858-4.906a117.375,117.375,0,0,1,7.9-11.789c.509-.574-.066-1.847-1.113-.655a74.662,74.662,0,0,0-7.983,11.976c-3.329,5.989-11.644-1.663-8.318-7.651,7.319-14.971,18.63-26.947,30.606-29.276,12.309-1.331,22.818,7.429,40.421,15.053Z" transform="translate(20.556 10.697)" fill="#ff6e2e"/>
    <path id="Caminho_152" data-name="Caminho 152" d="M352.177,205.721l-74.1-30.111,14.872-39.838,48.085,19.44c27.089,11.155,22.877-.891,6.415-18.49-9.03-8.5-10.9-61.3,8.523-52.863,58.345,34.35,67.129,146.6-3.8,121.861" transform="translate(25.696 7.665)" fill="#0521e3"/>
    <path id="Caminho_153" data-name="Caminho 153" d="M355.333,155.912a5.06,5.06,0,0,0,4.08-1.451c1.535-1.813.967-4.889-1.787-9.675l-.068-.1c-3.17-4.147-7.394-9.533-9.518-11.657l-1.312,1.313c2.043,2.043,6.187,7.328,9.319,11.422,2.915,5.082,2.473,6.88,1.949,7.5-2.143,2.533-13.161-1.564-17.867-3.317l-48.06-19.43-.7,1.719,48.085,19.44c6.905,2.569,12.292,4.235,15.875,4.235" transform="translate(26.924 12.06)" fill="#00faff"/>
    <path id="Caminho_154" data-name="Caminho 154" d="M371.563,170.077c.97,0,1.508-.308,1.742-.921.808-2.1-5.358-5.931-10.842-8.81,16.685,3.334,17.652,1.875,18.1,1.206a1.366,1.366,0,0,0-.094-1.587c-2.082-2.921-19.708-8.17-28.246-5.965l.464,1.8c7.774-2.008,22.625,2.646,25.746,4.769-1.629.16-6.84-.01-23.076-3.627l-.569,1.758c8.535,3.678,14.71,7.764,16.349,9.5a22.877,22.877,0,0,1-4.393-1.166l-.6,1.758a19.316,19.316,0,0,0,5.418,1.29" transform="translate(32.547 14.182)" fill="#00faff"/>
    <path id="Caminho_155" data-name="Caminho 155" d="M189.92,280.407c.164-.209,16.536-21,23.509-30.039a1.988,1.988,0,0,0,.357-1.949c-.79-2.111-5.415-3.2-12.94-4.731-3.164-.647-7.362-1.5-8.69-2.235,4.909-2.137,7.322-2.45,17.53,2.087,7.143,3.174,10.3,2.109,11.69.653,1.615-1.689,1.565-4.606-.133-8l-.083-.165-.14-.12c-6.444-5.587-18.245-15.814-18.576-19.474,5.321-3.176,9.713,1.947,16.343,10.459a104.118,104.118,0,0,0,8.275,9.763l1.313-1.312a102.724,102.724,0,0,1-8.124-9.591c-6.179-7.933-12.012-15.418-19.226-10.616l-.334.223-.067.4c-.662,3.975,7.836,11.718,19.04,21.432,1.234,2.544,1.375,4.678.371,5.727-1.362,1.426-4.86,1.037-9.595-1.067-10.946-4.864-13.762-4.432-19.627-1.826l-.15.068-.118.113a1.534,1.534,0,0,0-.5,1.582c.452,1.551,3.218,2.255,10.426,3.727,3.676.75,11.324,2.313,11.575,3.571h0a.518.518,0,0,1-.094.163c-6.964,9.028-23.329,29.812-23.494,30.02Z" transform="translate(17.415 19.739)" fill="#00faff"/>
    <path id="Caminho_156" data-name="Caminho 156" d="M215.6,164.768a3.481,3.481,0,0,1-3.451,4.636H75.2a6.381,6.381,0,0,1-5.819-4.636L46.439,74.973a3.481,3.481,0,0,1,3.451-4.636H186.839a6.384,6.384,0,0,1,5.82,4.636Z" transform="translate(4.277 6.499)"/>
    <path id="Caminho_157" data-name="Caminho 157" d="M91.236,161.106v5.315a4.636,4.636,0,0,0,4.635,4.635h178.91a4.636,4.636,0,0,0,4.636-4.635v-5.315Z" transform="translate(8.431 14.887)"/>
    <path id="Caminho_158" data-name="Caminho 158" d="M269.662,166.42V161.1H196.807v5.315a4.636,4.636,0,0,0,4.635,4.636h63.583a4.635,4.635,0,0,0,4.636-4.636" transform="translate(18.186 14.887)" fill="#00faff"/>
    <path id="Caminho_159" data-name="Caminho 159" d="M204.2,164.768,181.26,74.973a6.381,6.381,0,0,0-5.819-4.636h-5.805a6.382,6.382,0,0,1,5.819,4.636L198.4,164.768a3.48,3.48,0,0,1-3.451,4.635h5.805a3.48,3.48,0,0,0,3.451-4.635" transform="translate(15.675 6.499)" fill="#00faff"/>
    <path id="Caminho_160" data-name="Caminho 160" d="M148.516,129.494l-.01-.005a11.765,11.765,0,0,1-1.8,3.571,11.406,11.406,0,0,1-2.881,2.717l-5.164-5.686a7.7,7.7,0,0,0,1.947-1.835,7.954,7.954,0,0,0,1.213-2.413l-.19-.1-6.341-3.462a4.211,4.211,0,0,1-.643,1.28,4.089,4.089,0,0,1-1.032.976l4.9,5.4a8.745,8.745,0,0,1-2.539,1.133,11.461,11.461,0,0,1-3.011.385,15.114,15.114,0,0,1-3.307-.385,18.734,18.734,0,0,1-3.406-1.133l-.024.163-.8,5.686a33.1,33.1,0,0,1-4.965-2.717,35.19,35.19,0,0,1-4.532-3.571,33.7,33.7,0,0,1-3.841-4.222,29.661,29.661,0,0,1-2.917-4.634q-.59-1.17-1.055-2.377a23.008,23.008,0,0,1-.772-2.395,18.488,18.488,0,0,1-.631-4.633,14.133,14.133,0,0,1,.607-4.219,11.784,11.784,0,0,1,1.8-3.567A11.432,11.432,0,0,1,112,100.73a13.17,13.17,0,0,1,3.808-1.7,17.192,17.192,0,0,1,4.516-.574,22.629,22.629,0,0,1,4.955.574l.853,6.235.024.179a18.8,18.8,0,0,1,3.4,1.128,22.1,22.1,0,0,1,3.3,1.807,23.443,23.443,0,0,1,3.019,2.376,22.548,22.548,0,0,1,2.561,2.811,19.8,19.8,0,0,1,1.944,3.086,17.317,17.317,0,0,1,.713,1.6,15.459,15.459,0,0,1,.508,1.581,12.344,12.344,0,0,1,.425,3.087l.2.066,6.878,2.278.01,0a18.525,18.525,0,0,0-.636-4.636,22.805,22.805,0,0,0-.769-2.378,25.883,25.883,0,0,0-1.063-2.4,29.654,29.654,0,0,0-2.922-4.635A33.871,33.871,0,0,0,139.887,107a35.281,35.281,0,0,0-4.535-3.568,33.113,33.113,0,0,0-4.964-2.715,28.251,28.251,0,0,0-5.11-1.7l-.833-6.091a29.769,29.769,0,0,0-6.528-.756,22.631,22.631,0,0,0-5.949.756,17.325,17.325,0,0,0-5.017,2.233,15.057,15.057,0,0,0-3.8,3.575,15.5,15.5,0,0,0-2.368,4.7,18.63,18.63,0,0,0-.8,5.559,24.324,24.324,0,0,0,.832,6.1,30.345,30.345,0,0,0,1.017,3.153,34.053,34.053,0,0,0,1.391,3.134,38.983,38.983,0,0,0,3.843,6.1,44.488,44.488,0,0,0,5.06,5.563,46.465,46.465,0,0,0,5.972,4.7,43.479,43.479,0,0,0,6.539,3.579l.787-5.554a28.138,28.138,0,0,0,5.115,1.7,22.616,22.616,0,0,0,4.962.576,17.185,17.185,0,0,0,4.521-.576,13.137,13.137,0,0,0,3.811-1.7l5.045,5.554a15.007,15.007,0,0,0,3.795-3.579,15.493,15.493,0,0,0,2.366-4.7Z" transform="translate(9.239 8.518)" fill="#00faff"/>
  </g>
</svg>
